<svg xmlns="http://www.w3.org/2000/svg" xmlns:xlink="http://www.w3.org/1999/xlink" fill="none" version="1.1" width="140" height="140" viewBox="0 0 140 140"><g><path d="M0 24C1.962109585316772e-15 10.745166004060955 10.745166004060959 0 24 0L116 0C129.25483399593904 0 140 10.745166004060959 140 24L140 116C140 129.25483399593904 129.25483399593904 140 116 140L24 140C10.745166004060959 140 0 129.25483399593904 0 116Z" fill="#5A82E6" fill-opacity="1"/><path d="M77.77520799999999,98.479713C77.344646,102.364166,77.892708,106.294632,79.36946900000001,109.913139C65.55373,113.156563,51.043169,109.024712,41.008374,98.989922C24.9972086,82.978756,24.9972086,57.019535000000005,41.008374,41.008372C57.019537,24.9972086,82.978767,24.9972086,98.989929,41.008372C109.024719,51.043167,113.156563,65.553726,109.913139,79.36946900000001C106.294624,77.89270400000001,102.364159,77.344646,98.479721,77.77520799999999C98.396545,77.78442799999999,98.313431,77.79409,98.230362,77.80419499999999C93.032784,78.436745,88.196899,80.792171,84.49453700000001,84.49453700000001C80.792171,88.19689600000001,78.43674899999999,93.032784,77.804203,98.23037C77.79409799999999,98.313431,77.784492,98.396553,77.77520799999999,98.479713ZM99.284256,69.999146Q99.284256,73.894012,98.29084,77.583145C94.978508,74.276459,90.285027,72.75246,85.661957,73.482471Q81.271725,68.186298,75.19442000000001,64.551357Q67.624229,60.023497,59.021282,59.021282Q60.023497,67.624229,64.551361,75.19442000000001Q68.186302,81.271721,73.482479,85.661953C72.75246,90.285023,74.276466,94.9785,77.58314899999999,98.290833Q73.894001,99.284248,69.999146,99.284248Q63.934002,99.284248,58.367771000000005,96.875313Q53.241314,94.6567,49.291452,90.70684399999999Q45.341591,86.756977,43.12298,81.63051999999999Q40.714043000000004,76.064289,40.714043000000004,69.999146Q40.714043000000004,63.933998,43.12298,58.367767Q45.341591,53.24131,49.291452,49.291450999999995Q53.241314,45.341591,58.367771000000005,43.122978Q63.934002,40.714043000000004,69.999146,40.714044Q76.064289,40.714038,81.630527,43.122978Q86.756985,45.341597,90.70684399999999,49.291452Q94.6567,53.24131,96.87532,58.367767Q99.284256,63.934006,99.284256,69.999146Z" fill-rule="evenodd" fill="#FFFFFF" fill-opacity="1"/><path d="M103.06221029711914,91.7318172847168C102.62138029711915,90.5698985847168,101.93906029711914,89.5147237847168,101.06031329711914,88.6359779847168C97.62934929711915,85.2050146447168,92.06665949711915,85.2050146447168,88.63569589711913,88.6359779847168C85.20473229711914,92.06694128471679,85.20473229711914,97.6296315847168,88.63569589711913,101.0605945847168C89.51444169711914,101.9393415847168,90.56961819711914,102.62166058471679,91.73153589711914,103.0624905847168L111.00000429711915,111.0002865847168L103.06221029711914,91.7318172847168Z" fill-rule="evenodd" fill="#F9B130" fill-opacity="1"/></g></svg>